<?xml version="1.0" encoding="UTF-8"?>
<!DOCTYPE svg PUBLIC "-//W3C//DTD SVG 1.1//EN" "http://www.w3.org/Graphics/SVG/1.1/DTD/svg11.dtd">
<!-- Creator: CorelDRAW 2018 (64-Bit OEM Version) -->
<svg xmlns="http://www.w3.org/2000/svg" xml:space="preserve" width="8.5in" height="11in" version="1.1" style="shape-rendering:geometricPrecision; text-rendering:geometricPrecision; image-rendering:optimizeQuality; fill-rule:evenodd; clip-rule:evenodd"
viewBox="0 0 8500 11000"
 xmlns:xlink="http://www.w3.org/1999/xlink">
 <defs>
  <style type="text/css">
   <![CDATA[
    .fil1 {fill:#11B5DF}
    .fil0 {fill:#366AB4}
   ]]>
  </style>
 </defs>
 <g id="Layer_x0020_1">
  <metadata id="CorelCorpID_0Corel-Layer"/>
  <path class="fil0" d="M3868.06 2948.34c-2.85,-176.55 208.13,-420.25 386.5,-409.74 41.7,-24.64 111.53,-17.8 162.2,-14.37 506.66,101.69 552.78,642.01 249.49,902.09 -153.38,131.54 -401.74,149.75 -573.98,40.49 -142.85,-90.6 -294.22,-342.48 -224.2,-518.46zm1526.4 1501.21c-106.74,-62.3 -242.41,-173.26 -346.76,-250.83 -88.88,-66.07 -255.3,-183.9 -326.87,-260.99 -29.06,-17.31 -158.74,-122.13 -169.24,-145.74 22.31,-17.08 124.03,-52.25 165.42,-74.95 153.42,-84.12 271.41,-217.83 339.15,-380.47 123.36,-296.19 61.43,-497.96 -73.03,-764.87l331.94 -350.11c75.09,-80.7 139.2,-16.02 222.08,-119.19 139.26,-173.35 -85.41,-408.46 -268.93,-278.16 -111.24,78.98 -50.93,153.92 -125.53,225.11 -57.86,55.21 -117.74,110.54 -176.74,164.55 -43.07,39.41 -137.57,149.76 -175.63,172.22 -134.9,-54.75 -181.84,-133.8 -441.94,-132.41 -275.47,1.47 -351.63,106.96 -440.24,131.45 -22.29,-13.42 -359.61,-335.43 -376.61,-358.98 -46.58,-64.54 13.94,-166.35 -144.11,-224.94 -82.32,-30.52 -207.46,-8.13 -251.27,104.83 -36.38,93.79 -1.84,204.26 90.83,249.5 122.37,59.73 40.74,-55.48 230.88,147.22 336.12,358.31 273.25,219.26 188.58,408.33 -174.02,388.6 4.14,793.48 344.89,1013.64 142.42,92.02 291.24,215.12 422.8,323.88 533.15,440.79 1636.22,1264.86 2242.14,1483.86 148.01,53.5 509.87,154.55 506.37,-108.82 -3.5,-262.3 -442.74,-687.26 -644.1,-851.28 -79.64,-64.86 -153.29,-156.11 -212.23,-134.66 -74.15,26.97 -217.07,72.67 -279.17,102.02 18.04,23.11 173.85,139.47 210.28,166.31 120.91,89.06 534.91,471.64 558.78,567.22 -219.06,-26.9 -1212.86,-660.74 -1401.72,-823.72z"/>
  <path class="fil1" d="M2476.04 4281.23c151.16,60.28 761.26,230.68 889.23,149.91 101.42,-64.02 598.02,-380.01 637.28,-447.9 -17.91,-34.14 -478.89,-443.76 -551.37,-511.75 -89.35,-83.81 -188.79,-162.36 -282.96,-242.52 -74.09,-63.09 -208.16,-185.37 -288.7,-229.96 -54.13,-71.76 -442.51,-304.93 -542.78,-359.31 -236.58,-128.3 -1086.38,-569.87 -1285.54,-144.61 -104.54,274.48 52.92,668.78 231.32,907.02 342.83,457.83 670.85,668.11 1193.54,879.12z"/>
  <path class="fil0" d="M3353.24 5009.97l57.24 -35.09c51.66,-34.58 115.02,-67.03 169.85,-98.26 103.17,-58.75 66.24,-64.75 172.58,-18.94 378.11,162.9 953.54,148.26 1305.59,-44.78 -14.61,-22.76 -258.03,-199.98 -295.63,-221.25 -138.51,16.99 -227.87,42.84 -377.33,45.07 -82.92,1.24 -300.95,-5.2 -366.64,-42.76l391.61 -275.41 -4.03 -9.61 -208.37 -163.02c-38.64,12.3 -206.94,136.98 -256.25,169.98 -258.17,172.72 -529.01,353.43 -808.92,491.22 -198.67,97.8 -384.5,191.73 -590.65,276.06 -105.46,43.14 -563.65,215.06 -649.33,196.7 4.18,-17.75 1.43,-6.65 16.35,-26.53 6.83,-9.11 13.21,-17.85 19.93,-26.75 14.27,-18.89 27.67,-31.5 42.97,-49.41 120.84,-141.44 349.96,-360.31 497.11,-471.25 23.11,-17.42 209.29,-162.57 211.43,-165.26 -74.16,-27.91 -153.78,-50.66 -230.07,-78.68 -136.03,-49.95 -80.67,-34.08 -189.28,45.62 -208.18,152.77 -911.45,809.93 -680.45,1036.93 158.69,155.95 760.54,-75.22 949.34,-149.65 147.21,-58.03 282.16,-119.46 426.4,-182.06 122.61,-53.21 286.01,-164.9 396.56,-202.9z"/>
  <path class="fil1" d="M4344.27 2687.06c-130.83,92.77 -170.32,91.36 -213.11,267.45 -39.81,163.85 -246.86,126.82 -263.1,-6.17 -70.02,175.98 81.36,427.86 224.2,518.46 172.24,109.26 420.59,91.05 573.98,-40.48 303.3,-260.08 257.17,-800.41 -249.49,-902.09 -50.67,-3.43 -129.17,-10.58 -170.88,14.06 96.13,17.06 109.88,55.27 98.39,148.77z"/>
  <path class="fil1" d="M3353.24 5009.97c43.07,62.15 88.29,343.84 127.18,395.08 22.69,-12.98 0.85,-15.4 39.32,5.88 13.01,7.2 27.89,17.21 42.13,25.03 30.22,16.59 61.46,30.93 92.26,45.59 64.73,30.77 132.27,55.52 200.31,76.51 148.17,45.72 329.39,67.72 484.96,68.18 262.08,0.78 452.14,-33.91 687.46,-133.54 31.49,-13.33 62.53,-28.67 93.27,-44.18 15.55,-7.85 28.11,-15.11 43.05,-23.39 39.41,-21.85 27.44,-24.46 45.81,-7 13.89,-26.19 115.74,-407.39 113.88,-432.77 -51.95,19.69 -140.26,86.34 -196.78,118.02 -61.63,34.54 -158.63,81.41 -223.28,98.68 -424.75,113.46 -675.04,125.57 -1105.92,-1.95 -53.3,-15.77 -414.19,-176.61 -386.43,-225.24l-57.24 35.09z"/>
  <path class="fil0" d="M5209 5418.13c-18.37,-17.46 -6.41,-14.85 -45.81,7 -14.94,8.28 -27.5,15.54 -43.05,23.39 -30.74,15.52 -61.78,30.85 -93.27,44.18 -235.32,99.63 -425.39,134.31 -687.46,133.54 -155.57,-0.46 -336.79,-22.46 -484.96,-68.18 -68.04,-21 -135.58,-45.74 -200.31,-76.51 -30.81,-14.65 -62.05,-28.99 -92.26,-45.59 -14.23,-7.81 -29.12,-17.83 -42.13,-25.03 -38.47,-21.28 -16.63,-18.86 -39.32,-5.88 20.98,89.67 58.52,185.52 86.78,274.03 27.94,87.5 51.36,100.62 188.81,162.49 359.98,162.01 820.02,161.69 1179.72,3.13 136.93,-60.37 165.69,-72.35 193.26,-157.7 28.36,-87.8 54.4,-180.06 80.02,-268.87z"/>
  <path class="fil0" d="M3919.26 6193.97c19.24,57.01 398.89,702.96 429.36,730.84 33.41,-30.59 395.2,-649.09 429.14,-723.05 -139.13,5.5 -435.3,145.46 -858.5,-7.79z"/>
  <path class="fil1" d="M4401.76 4327.31l-382.87 266.67c65.69,37.56 283.72,44 366.64,42.76 149.46,-2.23 238.83,-28.08 377.33,-45.07 -41.27,-41.54 -159.69,-125.02 -211.19,-162.46 -54.06,-39.3 -89.55,-78.73 -141.18,-110.63l0 0 -8.74 8.74z"/>
  <path class="fil0" d="M4316.54 1203.44c-199.75,46.71 -121.35,333.63 63.9,286.22 181.93,-46.57 127.28,-330.92 -63.9,-286.22z"/>
  <path class="fil0" d="M4203.43 7350.96c16.63,187.46 309.88,162.93 290.19,-34.48 -17.9,-179.37 -308.89,-176.42 -290.19,34.48z"/>
  <path class="fil1" d="M5587.76 3185.94c-140.06,113.56 -304.61,244.89 -430.11,372.32 -113.66,115.41 -324.11,267.69 -416.57,386.85l-20.26 -7.39c71.57,77.09 237.99,194.92 326.87,261 104.34,77.57 240.01,188.53 346.76,250.83 170.74,21.57 627.28,-97.39 800.09,-159.31 424.56,-152.12 852.64,-406.49 1135.59,-763.9 184.51,-242 513.01,-784.95 267.06,-1098.65 -238.59,-304.3 -963.14,64.31 -1220.47,208.73 -304.8,172.87 -517.57,330.09 -788.96,549.52z"/>
 </g>
</svg>
